<svg width="121" height="113" viewBox="0 0 121 113" fill="none" xmlns="http://www.w3.org/2000/svg">
<rect x="45.4545" width="75" height="75" fill="url(#paint0_linear_3_13)"/>
<path d="M53.2764 7.45456H58.8182C60.7091 7.45456 62.1127 7.89819 63.0291 8.78546C63.9455 9.65819 64.4036 11.0182 64.4036 12.8655V17.3164C64.4036 19.1636 63.9455 20.5309 63.0291 21.4182C62.1127 22.2909 60.7091 22.7273 58.8182 22.7273H53.2764V19.9564H54.7164V10.2036H53.2764V7.45456ZM58.8182 19.9782C59.8218 19.9782 60.52 19.7455 60.9127 19.28C61.32 18.8 61.5236 18.0582 61.5236 17.0546V12.8655C61.5236 11.9927 61.32 11.3309 60.9127 10.88C60.52 10.4291 59.8218 10.2036 58.8182 10.2036H57.5964V19.9782H58.8182Z" fill="white"/>
<path d="M78.1121 7.45456H87.7557V10.2036H80.9921V13.6946H87.4939V16.4436H80.9921V19.9782H88.0176V22.7273H78.1121V7.45456Z" fill="white"/>
<path d="M109.668 12.1236C109.668 11.5127 109.428 10.9818 108.948 10.5309C108.482 10.08 107.821 9.85456 106.962 9.85456C106.235 9.85456 105.661 10.0073 105.239 10.3127C104.817 10.6036 104.606 11.0036 104.606 11.5127C104.606 11.7746 104.657 12.0146 104.759 12.2327C104.861 12.4364 105.035 12.6255 105.282 12.8C105.544 12.96 105.879 13.1055 106.286 13.2364C106.708 13.3673 107.239 13.4909 107.879 13.6073C109.479 13.8982 110.701 14.3855 111.544 15.0691C112.388 15.7527 112.81 16.7636 112.81 18.1018V18.3636C112.81 19.0764 112.679 19.7236 112.417 20.3055C112.17 20.8727 111.806 21.36 111.326 21.7673C110.846 22.1746 110.264 22.4873 109.581 22.7055C108.897 22.9236 108.126 23.0327 107.268 23.0327C106.264 23.0327 105.377 22.8946 104.606 22.6182C103.85 22.3273 103.217 21.9346 102.708 21.44C102.199 20.9309 101.813 20.3418 101.551 19.6727C101.29 18.9891 101.159 18.2473 101.159 17.4473V16.7927H104.039V17.3164C104.039 18.2327 104.301 18.9673 104.824 19.52C105.362 20.0582 106.191 20.3273 107.311 20.3273C108.184 20.3273 108.831 20.1382 109.253 19.76C109.675 19.3818 109.886 18.9309 109.886 18.4073C109.886 18.16 109.842 17.9273 109.755 17.7091C109.668 17.4764 109.515 17.2727 109.297 17.0982C109.079 16.9091 108.781 16.7418 108.402 16.5964C108.024 16.4509 107.544 16.3273 106.962 16.2255C106.191 16.0946 105.486 15.9273 104.846 15.7236C104.206 15.5055 103.646 15.2218 103.166 14.8727C102.701 14.5236 102.337 14.0873 102.075 13.5636C101.813 13.04 101.682 12.4 101.682 11.6436V11.5127C101.682 10.8873 101.806 10.3127 102.053 9.7891C102.315 9.25092 102.671 8.78547 103.122 8.39274C103.588 8.00001 104.141 7.69456 104.781 7.47637C105.435 7.25819 106.162 7.1491 106.962 7.1491C107.864 7.1491 108.664 7.28001 109.362 7.54183C110.061 7.7891 110.642 8.13092 111.108 8.56728C111.588 9.00365 111.944 9.50547 112.177 10.0727C112.424 10.64 112.548 11.2364 112.548 11.8618V12.6473H109.668V12.1236Z" fill="white"/>
<path d="M53.8436 30.1818H64.0545V32.9309H60.3891V42.7055H64.0545V45.4546H53.8436V42.7055H57.5091V32.9309H53.8436V30.1818Z" fill="white"/>
<path d="M81.9957 37.7309H88.5412V45.4546H85.923V43.7527H85.5303C85.3557 44.32 85.0212 44.8 84.5267 45.1927C84.0321 45.5709 83.2903 45.76 82.3012 45.76C81.603 45.76 80.9485 45.6291 80.3376 45.3673C79.7267 45.1055 79.1957 44.72 78.7448 44.2109C78.2939 43.6873 77.9376 43.0473 77.6757 42.2909C77.4139 41.52 77.283 40.6255 77.283 39.6073V36.0291C77.283 35.04 77.4212 34.1673 77.6976 33.4109C77.9885 32.64 78.3812 31.9927 78.8757 31.4691C79.3848 30.9455 79.9885 30.5527 80.6866 30.2909C81.3848 30.0146 82.1557 29.8764 82.9994 29.8764C83.8721 29.8764 84.6503 30.0218 85.3339 30.3127C86.0176 30.5891 86.5994 30.9818 87.0794 31.4909C87.5594 31.9855 87.923 32.5746 88.1703 33.2582C88.4176 33.9273 88.5412 34.6473 88.5412 35.4182V35.68H85.6612V35.4182C85.6612 34.5018 85.4212 33.8109 84.9412 33.3455C84.4757 32.8655 83.8139 32.6255 82.9557 32.6255C82.1412 32.6255 81.4721 32.9018 80.9485 33.4546C80.4248 33.9927 80.163 34.9236 80.163 36.2473V39.4764C80.163 41.8327 81.123 43.0109 83.043 43.0109C83.9012 43.0109 84.5485 42.7855 84.9848 42.3346C85.4357 41.8691 85.6612 41.2509 85.6612 40.48H81.9957V37.7309Z" fill="white"/>
<path d="M109.122 44.0146H109.515V30.1818H112.395V45.4546H106.766L104.977 31.6218H104.584V45.4546H101.704V30.1818H107.333L109.122 44.0146Z" fill="white"/>
<path d="M63.5527 63.6C63.5527 65.1855 63.1236 66.4 62.2655 67.2436C61.4073 68.0727 60.2291 68.4873 58.7309 68.4873C57.96 68.4873 57.2618 68.3855 56.6364 68.1818C56.0109 67.9636 55.4727 67.6509 55.0218 67.2436C54.5709 66.8218 54.2218 66.3127 53.9745 65.7164C53.7273 65.1055 53.6036 64.4 53.6036 63.6V62.16H56.4836V63.6C56.4836 64.2836 56.6727 64.8218 57.0509 65.2146C57.4291 65.5927 57.96 65.7818 58.6436 65.7818C59.2836 65.7818 59.7782 65.5927 60.1273 65.2146C60.4909 64.8364 60.6727 64.2982 60.6727 63.6V55.6146H59.1018V52.9091H64.8618V55.6146H63.5527V63.6Z" fill="white"/>
<path d="M85.5957 64.9091H80.403L79.6612 68.1818H76.6503L80.2939 52.9091H85.7048L89.3485 68.1818H86.3376L85.5957 64.9091ZM81.0139 62.16H84.963L83.1957 54.3491H82.803L81.0139 62.16Z" fill="white"/>
<path d="M100.853 52.9091H105.915L106.788 64.3855V66.6109H107.311V64.3855L108.184 52.9091H113.246V68.1818H110.628V57.9709L110.89 54.48H110.366L109.231 68.1818H104.911L103.733 54.48H103.21L103.471 57.9709V68.1818H100.853V52.9091Z" fill="white"/>
<path d="M0 112.5V44.5L45.4545 7.62939e-06V74.7727L0 112.5Z" fill="url(#paint1_linear_3_13)"/>
<path d="M45.4545 74.7727L0 112.5H83.6364L120.455 75L45.4545 74.7727Z" fill="url(#paint2_linear_3_13)"/>
<defs>
<linearGradient id="paint0_linear_3_13" x1="90" y1="27.5" x2="46.5" y2="75" gradientUnits="userSpaceOnUse">
<stop stop-color="#FF9A3B"/>
<stop offset="1" stop-color="#FA8136"/>
</linearGradient>
<linearGradient id="paint1_linear_3_13" x1="45" y1="38" x2="-6.2177e-07" y2="81" gradientUnits="userSpaceOnUse">
<stop stop-color="#C8F44E"/>
<stop offset="1" stop-color="#9AB749"/>
</linearGradient>
<linearGradient id="paint2_linear_3_13" x1="65" y1="75" x2="42.5" y2="112" gradientUnits="userSpaceOnUse">
<stop stop-color="#0AD1EE"/>
<stop offset="1" stop-color="#008EA3"/>
</linearGradient>
</defs>
</svg>
